<svg xmlns="http://www.w3.org/2000/svg" width="147.734" height="28" viewBox="0 0 147.734 28">
  <g id="coi" transform="translate(-0.02 0.05)">
    <path id="Path_138" data-name="Path 138" d="M196.33,174.614h0a1.576,1.576,0,0,1-.3,0,.162.162,0,0,1-.149-.171v-2.56a.178.178,0,0,1,.149-.171h.6a.17.17,0,0,1,.153.171v2.56a.178.178,0,0,1-.153.171h-.283Zm5.614,0h0a1.576,1.576,0,0,1-.3,0,.162.162,0,0,1-.149-.171v-2.56a.178.178,0,0,1,.149-.171h.6a.17.17,0,0,1,.153.171v2.56a.178.178,0,0,1-.153.171h-.283Zm-2.815-.44h-.256l-.092-.023h-.019a.159.159,0,0,1-.134-.152v-1.673a.147.147,0,0,1,.134-.152l.111-.008h.551l.1.019h0a.159.159,0,0,1,.134.152v1.673a.147.147,0,0,1-.134.152l-.111.023h-.283Zm.019.459a3.2,3.2,0,0,0,.738-.078.8.8,0,0,0,.413-.152.5.5,0,0,0,.168-.195.394.394,0,0,0,.057-.21,4.942,4.942,0,0,0,.038-1.4c-.019-.113-.019-.21-.038-.327a.873.873,0,0,0-.034-.191.422.422,0,0,0-.172-.195,1.135,1.135,0,0,0-.417-.152,1.981,1.981,0,0,0-.34-.039,6.461,6.461,0,0,0-.868,0,1.3,1.3,0,0,0-.792.249.684.684,0,0,0-.153.424,3.469,3.469,0,0,0-.038.443,4.546,4.546,0,0,0,.019.883,3.831,3.831,0,0,0,.076.459.61.61,0,0,0,.47.389,2.54,2.54,0,0,0,.872.093m-48.031-.019h0a1.579,1.579,0,0,1-.3,0,.162.162,0,0,1-.149-.171v-2.56a.166.166,0,0,1,.149-.171h.6a.156.156,0,0,1,.113.052.161.161,0,0,1,.04.119v2.56a.178.178,0,0,1-.153.171h-.283Zm-2.834-.44h-.275l-.092-.023H147.9a.159.159,0,0,1-.134-.152v-1.673a.147.147,0,0,1,.134-.152l.111-.008h.551l.092.019h.023a.159.159,0,0,1,.13.152v1.673a.147.147,0,0,1-.13.152l-.115.023h-.283Zm.019.459a3.143,3.143,0,0,0,.734-.078.791.791,0,0,0,.417-.152.549.549,0,0,0,.172-.195.418.418,0,0,0,.054-.21,4.942,4.942,0,0,0,.038-1.4c-.019-.113-.019-.21-.038-.327a.7.7,0,0,0-.038-.191.594.594,0,0,0-.168-.214,1.135,1.135,0,0,0-.417-.152,1.982,1.982,0,0,0-.34-.039,6.185,6.185,0,0,0-.849,0,1.327,1.327,0,0,0-.8.249.829.829,0,0,0-.168.424,3.469,3.469,0,0,0-.038.443,4.546,4.546,0,0,0,.019.883,3.892,3.892,0,0,0,.076.463c.054.23.283.327.47.389a3.01,3.01,0,0,0,.91.093Zm-3.824-.459h-.294l-.1-.023h0a.159.159,0,0,1-.134-.152v-1.673a.147.147,0,0,1,.134-.152l.1-.008h.547l.1.019h.019a.159.159,0,0,1,.134.152v1.673a.147.147,0,0,1-.134.152l-.1.023h-.283Zm.019.459a3.176,3.176,0,0,0,.738-.078.791.791,0,0,0,.413-.152.549.549,0,0,0,.172-.195.394.394,0,0,0,.057-.21,4.942,4.942,0,0,0,.038-1.4c-.019-.113-.019-.21-.038-.327a.7.7,0,0,0-.038-.191.64.64,0,0,0-.168-.214,1.173,1.173,0,0,0-.417-.152,2.028,2.028,0,0,0-.34-.039,6.241,6.241,0,0,0-.853,0,1.3,1.3,0,0,0-.792.249.676.676,0,0,0-.153.424,3.461,3.461,0,0,0-.034.443,4.262,4.262,0,0,0,0,.883,3.893,3.893,0,0,0,.076.463.614.614,0,0,0,.474.389,3.011,3.011,0,0,0,.906.093Zm88.413-.019h0a1.577,1.577,0,0,1-.3,0,.166.166,0,0,1-.153-.171v-2.56a.182.182,0,0,1,.153-.171h.6a.152.152,0,0,1,.111.052.157.157,0,0,1,.038.119v2.56a.174.174,0,0,1-.149.171h-.283Zm2.777-.44h-.264l-.115-.023h0a.159.159,0,0,1-.134-.152v-1.673a.147.147,0,0,1,.134-.152l.111-.019h.551l.1.019h.019a.159.159,0,0,1,.134.152V174a.147.147,0,0,1-.134.152l-.115.023h-.264Zm.019.459a3.177,3.177,0,0,0,.738-.078.8.8,0,0,0,.417-.152.538.538,0,0,0,.168-.195.394.394,0,0,0,.057-.21,4.942,4.942,0,0,0,.038-1.4c-.019-.113-.019-.21-.038-.327a.7.7,0,0,0-.038-.191.64.64,0,0,0-.168-.214,1.173,1.173,0,0,0-.417-.152,2.028,2.028,0,0,0-.34-.039,6.464,6.464,0,0,0-.868,0,1.315,1.315,0,0,0-.8.249.676.676,0,0,0-.153.424,4.357,4.357,0,0,0-.038.443,4.871,4.871,0,0,0,.023.883,3.233,3.233,0,0,0,.073.463c.057.23.287.327.474.389a3.011,3.011,0,0,0,.906.093Zm-19.715-.019h-.019a1.4,1.4,0,0,1-.283,0,.166.166,0,0,1-.149-.171v-2.56a.178.178,0,0,1,.149-.171h.6a.156.156,0,0,1,.113.052.161.161,0,0,1,.04.119v2.56a.178.178,0,0,1-.153.171,1.579,1.579,0,0,1-.3,0m1.889,0h0a1.421,1.421,0,0,1-.287,0,.166.166,0,0,1-.149-.171v-2.56a.182.182,0,0,1,.149-.171h.6a.17.17,0,0,1,.153.171v2.56a.178.178,0,0,1-.153.171,1.464,1.464,0,0,1-.3,0m-3.779,0H214.1a1.388,1.388,0,0,1-.283,0,.166.166,0,0,1-.153-.171v-2.56a.182.182,0,0,1,.153-.171h.6a.156.156,0,0,1,.113.052.161.161,0,0,1,.04.119v2.56a.178.178,0,0,1-.153.171,1.679,1.679,0,0,1-.3,0m15.99-.44h-.256l-.1-.023h-.019a.159.159,0,0,1-.13-.152v-1.673a.147.147,0,0,1,.13-.152l.115-.019h.551l.092.019h0a.158.158,0,0,1,.134.152V174a.147.147,0,0,1-.134.152l-.111.023H230.1Zm.019.459a3.176,3.176,0,0,0,.738-.078.813.813,0,0,0,.417-.152.577.577,0,0,0,.168-.195.394.394,0,0,0,.057-.21,4.943,4.943,0,0,0,.038-1.4c-.019-.113-.019-.21-.038-.327a.7.7,0,0,0-.038-.191.594.594,0,0,0-.168-.214,1.134,1.134,0,0,0-.417-.152,2.028,2.028,0,0,0-.34-.039,6.521,6.521,0,0,0-.872,0,1.3,1.3,0,0,0-.792.249.676.676,0,0,0-.153.424,4.319,4.319,0,0,0-.034.443,4.549,4.549,0,0,0,0,.883,3.884,3.884,0,0,0,.073.463.614.614,0,0,0,.474.389,3.011,3.011,0,0,0,.906.093Zm-46.061-.019h0a1.554,1.554,0,0,1-.3,0,.166.166,0,0,1-.153-.171v-2.56a.182.182,0,0,1,.153-.171h.6a.152.152,0,0,1,.111.052.157.157,0,0,1,.038.119v2.56a.178.178,0,0,1-.149.171h-.287Zm-9.454,0h0a1.594,1.594,0,0,1-.3,0,.162.162,0,0,1-.149-.171v-2.56a.182.182,0,0,1,.149-.171h.608a.152.152,0,0,1,.111.052.157.157,0,0,1,.038.119v2.56a.178.178,0,0,1-.149.171h-.287Zm6.635-.44h-.264l-.115-.023h0a.159.159,0,0,1-.13-.152v-1.673a.147.147,0,0,1,.13-.152l.115-.019h.551l.092.019h.019a.159.159,0,0,1,.134.152V174a.147.147,0,0,1-.134.152l-.111.023h-.268Zm.019.459a3.153,3.153,0,0,0,.738-.078.8.8,0,0,0,.417-.152.577.577,0,0,0,.168-.195.394.394,0,0,0,.057-.21,5.083,5.083,0,0,0,.038-1.4.968.968,0,0,0-.038-.327.7.7,0,0,0-.038-.191.6.6,0,0,0-.172-.214,1.135,1.135,0,0,0-.413-.152,2.074,2.074,0,0,0-.34-.039,6.238,6.238,0,0,0-.853,0,1.3,1.3,0,0,0-.792.249.676.676,0,0,0-.153.424,4.353,4.353,0,0,0-.038.443,4.87,4.87,0,0,0,.023.883,3.234,3.234,0,0,0,.073.463.614.614,0,0,0,.474.389,3.01,3.01,0,0,0,.906.093Zm-3.824-.459h-.283l-.1-.023h-.019a.159.159,0,0,1-.134-.152v-1.673a.147.147,0,0,1,.134-.152l.115-.019h.547l.1.019h0a.155.155,0,0,1,.13.152V174a.143.143,0,0,1-.13.152l-.115.023h-.264Zm0,.459a3.143,3.143,0,0,0,.734-.078.791.791,0,0,0,.417-.152.549.549,0,0,0,.172-.195.394.394,0,0,0,.054-.21,4.942,4.942,0,0,0,.038-1.4.968.968,0,0,0-.038-.327.691.691,0,0,0-.034-.191.605.605,0,0,0-.172-.214,1.154,1.154,0,0,0-.413-.152,2.074,2.074,0,0,0-.34-.039,6.238,6.238,0,0,0-.853,0,1.3,1.3,0,0,0-.792.249.676.676,0,0,0-.153.424,3.469,3.469,0,0,0-.038.443,4.545,4.545,0,0,0,.019.883,3.889,3.889,0,0,0,.076.463.614.614,0,0,0,.47.389,3.01,3.01,0,0,0,.91.093Zm-5.672-.459h-.264l-.1-.023h0a.155.155,0,0,1-.13-.152v-1.673a.147.147,0,0,1,.13-.152l.115-.019h.547l.1.019h0a.155.155,0,0,1,.13.152V174a.143.143,0,0,1-.13.152l-.115.023Zm.019.459a3.176,3.176,0,0,0,.738-.078.8.8,0,0,0,.417-.152.577.577,0,0,0,.168-.195.394.394,0,0,0,.057-.21,5.084,5.084,0,0,0,.038-1.4c-.019-.113-.019-.21-.038-.327a.7.7,0,0,0-.038-.191.6.6,0,0,0-.172-.214,1.135,1.135,0,0,0-.413-.152,2.074,2.074,0,0,0-.34-.039,6.466,6.466,0,0,0-.868,0,1.308,1.308,0,0,0-.8.249.676.676,0,0,0-.153.424,3.461,3.461,0,0,0-.034.443,4.262,4.262,0,0,0,0,.883,3.9,3.9,0,0,0,.076.463.614.614,0,0,0,.474.389,3.01,3.01,0,0,0,.906.093Zm-8.483-.019h0a1.576,1.576,0,0,1-.3,0,.166.166,0,0,1-.153-.171v-2.56a.182.182,0,0,1,.153-.171h.6a.17.17,0,0,1,.153.171v2.56a.178.178,0,0,1-.153.171h-.283Zm5.652,0h0a1.557,1.557,0,0,1-.3,0,.166.166,0,0,1-.153-.171v-2.56a.17.17,0,0,1,.153-.171h.6a.17.17,0,0,1,.149.171v2.56a.174.174,0,0,1-.149.171h-.283Zm-2.838-.44h-.264l-.1-.023h0a.155.155,0,0,1-.13-.152v-1.673a.147.147,0,0,1,.13-.152l.115-.019h.547l.1.019h.019a.159.159,0,0,1,.134.152V174a.147.147,0,0,1-.134.152l-.115.023h0a1.535,1.535,0,0,1-.268,0m.019.478a3.386,3.386,0,0,0,.738-.074.882.882,0,0,0,.417-.156.538.538,0,0,0,.168-.195.394.394,0,0,0,.057-.21,4.942,4.942,0,0,0,.038-1.4c-.019-.113-.019-.21-.038-.327a.675.675,0,0,0-.038-.191.64.64,0,0,0-.168-.214,1.173,1.173,0,0,0-.417-.152,2.028,2.028,0,0,0-.34-.039,6.461,6.461,0,0,0-.868,0,1.308,1.308,0,0,0-.8.249.68.68,0,0,0-.149.424,2.892,2.892,0,0,0-.038.443,4.866,4.866,0,0,0,0,.883c.023.152.038.307.076.459a.618.618,0,0,0,.474.389,3.009,3.009,0,0,0,.906.093Zm36.879,7.594a.77.77,0,0,1-.585.541,17.94,17.94,0,0,1-6.54,0,.716.716,0,0,1-.589-.541c-.226-.922-.317-8.037-.317-9.072s.111-8.134.317-9.076a.719.719,0,0,1,.589-.521,17.939,17.939,0,0,1,6.54,0,.719.719,0,0,1,.585.521c.226.922.34,8.037.34,9.076s-.115,8.13-.34,9.072m8.391-19a3.43,3.43,0,0,0-2.513-2.556,42.448,42.448,0,0,0-19.5,0,3.43,3.43,0,0,0-2.513,2.556,44.362,44.362,0,0,0,0,19.84,3.43,3.43,0,0,0,2.513,2.556,42.448,42.448,0,0,0,19.5,0,3.43,3.43,0,0,0,2.513-2.556,44.548,44.548,0,0,0,0-19.84m12.139,23.283h0c-.968,0-1.931-.035-2.857-.093a1.507,1.507,0,0,1-1.4-1.521V161.407a1.545,1.545,0,0,1,1.4-1.521c.983-.054,1.947-.078,2.91-.078s1.851.023,2.8.078a1.5,1.5,0,0,1,1.4,1.521v23.512a1.507,1.507,0,0,1-1.4,1.521c-.891.058-1.8.093-2.677.093Zm-44.489-10.087a.873.873,0,0,0-.815-.906h-7.408a.919.919,0,0,0-.872.906l-.038,1.167a45.971,45.971,0,0,1-.245,4.614.77.77,0,0,1-.585.541,17.94,17.94,0,0,1-6.54,0,.712.712,0,0,1-.585-.541c-.229-.922-.321-8.037-.321-9.072s.115-8.134.321-9.076a.77.77,0,0,1,.585-.537,17.769,17.769,0,0,1,6.54,0,.7.7,0,0,1,.585.537,39.166,39.166,0,0,1,.245,4.306l.057,1.385a.907.907,0,0,0,.872.9h7.389a.835.835,0,0,0,.6-.264.864.864,0,0,0,.233-.619V169.6a42.875,42.875,0,0,0-.979-6.364,3.441,3.441,0,0,0-2.516-2.556,42.429,42.429,0,0,0-19.5,0,3.426,3.426,0,0,0-2.513,2.556,44.362,44.362,0,0,0,0,19.84,3.426,3.426,0,0,0,2.513,2.556,42.43,42.43,0,0,0,19.5,0,3.441,3.441,0,0,0,2.516-2.556,43.559,43.559,0,0,0,.979-6.423v-.2Z" transform="translate(-143.04 -159.59)" fill="#517b97"/>
    <path id="Path_139" data-name="Path 139" d="M411.478,170.5a1.836,1.836,0,0,1-1.308-.382,1.809,1.809,0,0,1-.382-1.285V167.9a1.8,1.8,0,0,1,.382-1.285,1.847,1.847,0,0,1,1.308-.382h.3a1.912,1.912,0,0,1,1.266.34,1.285,1.285,0,0,1,.413.945.275.275,0,0,1-.073.207.306.306,0,0,1-.21.1h-.264a.287.287,0,0,1-.283-.249.608.608,0,0,0-.168-.432c-.076-.076-.264-.153-.681-.153h-.283c-.512,0-.665.115-.719.172a1.53,1.53,0,0,0-.153.849v.681a1.591,1.591,0,0,0,.134.853c.1.13.359.187.715.187h.287a1.147,1.147,0,0,0,.7-.172.734.734,0,0,0,.168-.547.275.275,0,0,1,.283-.264h.264a.279.279,0,0,1,.283.283h0a1.48,1.48,0,0,1-.382,1.078,1.836,1.836,0,0,1-1.285.359Z" transform="translate(-306.006 -163.721)" fill="#517b97"/>
    <path id="Path_140" data-name="Path 140" d="M422.836,167.793a.967.967,0,0,1,.168-.681.983.983,0,0,1,.7-.168h.279a1.094,1.094,0,0,1,.7.168.971.971,0,0,1,.172.681v.034h-2.023Zm2.57.765a.287.287,0,0,0,.283-.283v-.432a1.786,1.786,0,0,0-.382-1.285,1.832,1.832,0,0,0-1.3-.382h-.287a1.813,1.813,0,0,0-1.3.382,1.717,1.717,0,0,0-.382,1.285v.937a1.809,1.809,0,0,0,.382,1.285,1.855,1.855,0,0,0,1.3.382h.264a1.954,1.954,0,0,0,1.212-.3,1.239,1.239,0,0,0,.432-.8.275.275,0,0,0-.245-.321h-.31a.306.306,0,0,0-.283.226.486.486,0,0,1-.187.34,1.319,1.319,0,0,1-.662.115h-.283a1.021,1.021,0,0,1-.7-.168c-.077-.076-.172-.268-.172-.765v-.21Z" transform="translate(-313.486 -163.682)" fill="#517b97"/>
    <path id="Path_141" data-name="Path 141" d="M437.874,170.387a.291.291,0,0,0,.283-.287v-2.417a1.652,1.652,0,0,0-.34-1.17,1.587,1.587,0,0,0-1.17-.359,1.53,1.53,0,0,0-1.174.359v-.019a.287.287,0,0,0-.283-.283h-.207a.287.287,0,0,0-.283.283v3.591a.291.291,0,0,0,.283.283h.214a.291.291,0,0,0,.283-.283v-2.119a1.052,1.052,0,0,1,.268-.811,1.078,1.078,0,0,1,.83-.249.868.868,0,0,1,.643.172c.1.115.153.264.153.719v2.295a.291.291,0,0,0,.279.283Z" transform="translate(-321.235 -163.668)" fill="#517b97"/>
    <path id="Path_142" data-name="Path 142" d="M449.064,168.865a1.48,1.48,0,0,0,.34-1.075.272.272,0,0,0-.073-.206.291.291,0,0,0-.21-.111h-.245a.275.275,0,0,0-.283.283.8.8,0,0,1-.115.509.669.669,0,0,1-.49.134.765.765,0,0,1-.493-.134c-.057-.057-.13-.207-.13-.566v-2.061h1.641a.291.291,0,0,0,.287-.283V165.2a.294.294,0,0,0-.287-.287h-1.625v-.585a.291.291,0,0,0-.279-.283h-.229a.291.291,0,0,0-.283.283v.608h-.21a.287.287,0,0,0-.279.279v.153a.287.287,0,0,0,.279.283h.21v1.966a1.843,1.843,0,0,0,.283,1.17,1.273,1.273,0,0,0,1.021.363,1.8,1.8,0,0,0,1.17-.306" transform="translate(-328.203 -162.375)" fill="#517b97"/>
    <path id="Path_143" data-name="Path 143" d="M458.356,170.508a.291.291,0,0,0,.283-.287v-2.1a1.419,1.419,0,0,1,.172-.792l.038-.057c0-.019.034-.019.034-.038a1,1,0,0,1,1.059-.038.8.8,0,0,1,.115.509.287.287,0,0,0,.283.283h.237a.291.291,0,0,0,.283-.283,1.6,1.6,0,0,0-.283-1,1.2,1.2,0,0,0-1-.356,1.277,1.277,0,0,0-.964.34.291.291,0,0,0-.283-.287h-.207a.294.294,0,0,0-.283.287v3.587a.294.294,0,0,0,.283.287Z" transform="translate(-335.006 -163.788)" fill="#517b97"/>
    <path id="Path_144" data-name="Path 144" d="M470.455,169.328a.226.226,0,0,1-.1.21h-.019l-.038.023a1.56,1.56,0,0,1-.868.149,1.484,1.484,0,0,1-.765-.134.692.692,0,0,1-.168-.528.635.635,0,0,1,.149-.474,1.53,1.53,0,0,1,.7-.111c.493-.019,1.078.057,1.078.413v.436Zm.765-2.4a.788.788,0,0,0-.306-.47,2.721,2.721,0,0,0-1.492-.245,2.39,2.39,0,0,0-1.147.207.857.857,0,0,0-.382.719.272.272,0,0,0,.076.207.291.291,0,0,0,.207.1h.245a.3.3,0,0,0,.283-.226.382.382,0,0,1,.153-.229,1.8,1.8,0,0,1,.643-.092,1.705,1.705,0,0,1,.849.111c.134.076.153.34.153.551v.432a2.142,2.142,0,0,0-1.147-.245,6.327,6.327,0,0,0-.848.057.88.88,0,0,0-.663.49,2.349,2.349,0,0,0-.134.815,1.258,1.258,0,0,0,.382,1.094,2.115,2.115,0,0,0,1.266.268,1.69,1.69,0,0,0,1.147-.3.3.3,0,0,0,.287.245h.187a.294.294,0,0,0,.287-.283v-2.589c-.023-.191-.023-.382-.057-.608" transform="translate(-341.093 -163.706)" fill="#517b97"/>
    <path id="Path_145" data-name="Path 145" d="M480.9,167.9a.294.294,0,0,0,.283-.287V162.4a.291.291,0,0,0-.283-.279h-.226a.291.291,0,0,0-.287.279v5.216a.294.294,0,0,0,.287.287Z" transform="translate(-348.932 -161.183)" fill="#517b97"/>
    <path id="Path_146" data-name="Path 146" d="M489.154,170.419a.294.294,0,0,0,.287-.287v-2.4a1.691,1.691,0,0,0-.34-1.174,1.621,1.621,0,0,0-1.174-.356,1.553,1.553,0,0,0-1.17.356h0a.3.3,0,0,0-.287-.287h-.206a.294.294,0,0,0-.283.287v3.587a.294.294,0,0,0,.283.287h.226a.291.291,0,0,0,.283-.287v-2.115a1.079,1.079,0,0,1,.268-.815,1.209,1.209,0,0,1,.83-.264.868.868,0,0,1,.642.172c.1.115.153.264.153.719v2.295a.291.291,0,0,0,.283.283Z" transform="translate(-352.384 -163.7)" fill="#517b97"/>
    <path id="Path_147" data-name="Path 147" d="M499.2,171.752a2.926,2.926,0,0,0,.474-.945l1.4-4.046a.275.275,0,0,0-.172-.36.2.2,0,0,0-.092,0h-.21a.279.279,0,0,0-.264.187l-1.021,2.968-1.021-2.968a.279.279,0,0,0-.264-.187h-.207a.287.287,0,0,0-.283.279.21.21,0,0,0,0,.1l1.247,3.591a.382.382,0,0,0,.172.172l-.1.283a1.071,1.071,0,0,1-.245.432.47.47,0,0,1-.359.1.294.294,0,0,0-.283.283v.191a.287.287,0,0,0,.264.283h.153a1.117,1.117,0,0,0,.792-.34" transform="translate(-359.521 -163.824)" fill="#517b97"/>
    <path id="Path_148" data-name="Path 148" d="M412.635,193.164c0,.589-.1.8-.153.853-.092.134-.356.187-.715.187h-.283a.979.979,0,0,1-.719-.187,1.637,1.637,0,0,1-.134-.853v-.677c0-.57.076-.765.153-.853s.207-.168.715-.168l.287-.019c.509,0,.681.115.719.168a1.6,1.6,0,0,1,.149.853v.7Zm.436-2.077a1.84,1.84,0,0,0-1.3-.382h-.283a1.8,1.8,0,0,0-1.3.382,1.7,1.7,0,0,0-.382,1.285v.926a1.786,1.786,0,0,0,.382,1.285,1.832,1.832,0,0,0,1.3.382h.3a1.813,1.813,0,0,0,1.3-.382,1.717,1.717,0,0,0,.382-1.285v-.926a1.77,1.77,0,0,0-.382-1.285" transform="translate(-306.011 -178.595)" fill="#517b97"/>
    <path id="Path_149" data-name="Path 149" d="M425.268,194.848a1.121,1.121,0,0,0,.432-.455,1.465,1.465,0,0,0,.115-.7,1.8,1.8,0,0,0-.115-.7.792.792,0,0,0-.432-.382,3.548,3.548,0,0,0-1.231-.153h-.585a1.189,1.189,0,0,1-.382-.076c-.023,0-.1-.076-.1-.359,0-.382.187-.432.245-.47a2.51,2.51,0,0,1,.662-.038,4.087,4.087,0,0,1,.681.038c.283.057.321.187.34.245a.283.283,0,0,0,.283.207h.245a.3.3,0,0,0,.207-.092.287.287,0,0,0,.077-.21.914.914,0,0,0-.382-.7,2.517,2.517,0,0,0-1.193-.21,3.377,3.377,0,0,0-1.453.21,1.354,1.354,0,0,0,0,2.058,1.507,1.507,0,0,0,.585.115l.983.038a1.4,1.4,0,0,1,.643.115c.111.073.134.279.134.451,0,.264-.057.436-.191.493a2.2,2.2,0,0,1-.8.034,2.314,2.314,0,0,1-.815-.1.4.4,0,0,1-.207-.356.287.287,0,0,0-.287-.264h-.245a.3.3,0,0,0-.207.092.287.287,0,0,0-.077.21,1.079,1.079,0,0,0,.455.945,3.01,3.01,0,0,0,1.381.233,2.332,2.332,0,0,0,1.247-.207" transform="translate(-313.592 -178.649)" fill="#517b97"/>
    <path id="Path_150" data-name="Path 150" d="M426.069,187.979a.268.268,0,0,0,.226-.115l.6-.815a.291.291,0,0,0-.054-.382.31.31,0,0,0-.172-.057h-.226a.314.314,0,0,0-.245.134l-.493.811a.252.252,0,0,0,0,.283.291.291,0,0,0,.245.153Z" transform="translate(-315.743 -176.125)" fill="#517b97"/>
    <path id="Path_151" data-name="Path 151" d="M435.527,194.974a.291.291,0,0,0,.279-.283v-2.1a1.449,1.449,0,0,1,.172-.792c.019-.019.019-.038.038-.057s.038-.019.038-.038a.765.765,0,0,1,.566-.168.493.493,0,0,1,.6.642.3.3,0,0,0,.283.283h.226a.291.291,0,0,0,.283-.283,1.572,1.572,0,0,0-.283-1,1.193,1.193,0,0,0-1-.359,1.365,1.365,0,0,0-.983.34.291.291,0,0,0-.283-.283h-.21a.287.287,0,0,0-.279.283v3.591a.287.287,0,0,0,.279.283Z" transform="translate(-321.412 -178.665)" fill="#517b97"/>
    <path id="Path_152" data-name="Path 152" d="M447.72,193.164c0,.589-.1.8-.153.853-.092.134-.356.187-.715.187h-.283a.987.987,0,0,1-.719-.187,1.637,1.637,0,0,1-.134-.853v-.677c0-.57.076-.765.153-.853s.207-.168.719-.168l.283-.019c.509,0,.681.115.719.168a1.6,1.6,0,0,1,.149.853v.7Zm.436-2.077a1.84,1.84,0,0,0-1.3-.382h-.283a1.805,1.805,0,0,0-1.3.382,1.717,1.717,0,0,0-.382,1.285v.926a1.786,1.786,0,0,0,.382,1.285,1.84,1.84,0,0,0,1.3.382h.283a1.813,1.813,0,0,0,1.3-.382,1.717,1.717,0,0,0,.382-1.285v-.926a1.673,1.673,0,0,0-.382-1.285" transform="translate(-327.447 -178.595)" fill="#517b97"/>
    <path id="Path_153" data-name="Path 153" d="M459.9,190.637a1.147,1.147,0,0,1-.168.715c-.019.023-.019.038-.038.057s-.038.019-.038.038a1.078,1.078,0,0,1-.83.245.933.933,0,0,1-.723-.207,1.763,1.763,0,0,1-.13-.849v-.681a1.736,1.736,0,0,1,.13-.853.979.979,0,0,1,.723-.207,1.121,1.121,0,0,1,.83.283h.019l.019.019a1.239,1.239,0,0,1,.207.765v.643Zm.513-4.008h-.229a.294.294,0,0,0-.283.283v1.683a1.419,1.419,0,0,0-1.113-.382,1.759,1.759,0,0,0-1.27.382,1.835,1.835,0,0,0-.382,1.285v.926a1.748,1.748,0,0,0,.382,1.285,1.679,1.679,0,0,0,1.27.382,1.53,1.53,0,0,0,1.113-.417h.019v.069a.287.287,0,0,0,.283.283h.21a.291.291,0,0,0,.283-.283v-5.232a.264.264,0,0,0-.283-.264" transform="translate(-334.565 -176.099)" fill="#517b97"/>
    <path id="Path_154" data-name="Path 154" d="M470.32,192.267a.949.949,0,0,1,.172-.681,1.017,1.017,0,0,1,.7-.168h.283a1.147,1.147,0,0,1,.7.168.983.983,0,0,1,.168.681v.038l-2.023-.019Zm2.536.765a.294.294,0,0,0,.283-.283v-.455a1.8,1.8,0,0,0-.382-1.285,1.855,1.855,0,0,0-1.3-.382h-.283a1.824,1.824,0,0,0-1.3.382,1.717,1.717,0,0,0-.382,1.285v.926a1.8,1.8,0,0,0,.382,1.285,1.855,1.855,0,0,0,1.3.382h.283a1.939,1.939,0,0,0,1.209-.3,1.224,1.224,0,0,0,.436-.792.252.252,0,0,0-.057-.229.291.291,0,0,0-.207-.1h-.264a.3.3,0,0,0-.283.229.49.49,0,0,1-.191.34,1.312,1.312,0,0,1-.662.111h-.283a1.01,1.01,0,0,1-.7-.168c-.077-.076-.172-.264-.172-.765v-.226h2.574Z" transform="translate(-342.19 -178.547)" fill="#517b97"/>
    <path id="Path_155" data-name="Path 155" d="M484.912,192.369a.241.241,0,0,0,.245-.168.268.268,0,0,0-.034-.306l-1.488-1.832,1.189-1.4a.272.272,0,0,0-.038-.382.317.317,0,0,0-.187-.076h-.2a.271.271,0,0,0-.207.1l-1.209,1.434h-.019v-2.891a.291.291,0,0,0-.283-.283h-.229a.291.291,0,0,0-.283.283v5.217a.291.291,0,0,0,.283.283h.229a.291.291,0,0,0,.283-.283v-1.587h.019l1.415,1.759a.321.321,0,0,0,.21.092Z" transform="translate(-350.031 -176.058)" fill="#517b97"/>
    <rect id="Rectangle_196" data-name="Rectangle 196" width="0.795" height="4.157" rx="0.398" transform="translate(103.751 22.244)" fill="#517b97"/>
    <path id="Path_156" data-name="Path 156" d="M410.329,213.248a.291.291,0,0,0,.283-.283v-.3a.287.287,0,0,0-.283-.283H410.1a.287.287,0,0,0-.283.283v.3a.291.291,0,0,0,.283.283Z" transform="translate(-306.065 -191.873)" fill="#517b97"/>
    <path id="Path_157" data-name="Path 157" d="M418.574,220.649a.294.294,0,0,0,.287-.283v-2.421a1.671,1.671,0,0,0-.34-1.17,1.622,1.622,0,0,0-1.174-.359,1.553,1.553,0,0,0-1.17.359v-.019a.291.291,0,0,0-.287-.283h-.207a.291.291,0,0,0-.283.283v3.591a.291.291,0,0,0,.283.283h.229a.291.291,0,0,0,.283-.283v-2.119a1.063,1.063,0,0,1,.264-.811,1.1,1.1,0,0,1,.834-.245.876.876,0,0,1,.639.168c.1.115.153.268.153.719v2.295a.287.287,0,0,0,.283.283Z" transform="translate(-309.442 -194.248)" fill="#517b97"/>
    <path id="Path_158" data-name="Path 158" d="M427.779,218.151a.3.3,0,0,0,.283-.283v-3.155h.964a.294.294,0,0,0,.283-.283v-.153a.3.3,0,0,0-.283-.283h-.964v-.168c0-.436.057-.532.1-.589s.168-.134.547-.134l.321.023a.283.283,0,0,0,.187-.076.306.306,0,0,0,.1-.21v-.187a.283.283,0,0,0-.264-.283,4.205,4.205,0,0,0-.49,0,1.285,1.285,0,0,0-1.006.34,1.79,1.79,0,0,0-.283,1.147v.168H427a.291.291,0,0,0-.283.283v.153a.291.291,0,0,0,.283.283h.264V217.9a.294.294,0,0,0,.283.283Z" transform="translate(-316.37 -191.75)" fill="#517b97"/>
    <path id="Path_159" data-name="Path 159" d="M437.853,218.914c0,.589-.1.8-.153.853-.1.134-.359.187-.719.187H436.7a.987.987,0,0,1-.719-.187,1.66,1.66,0,0,1-.13-.853v-.677c0-.57.073-.765.149-.853s.21-.168.719-.168H437c.512,0,.681.111.719.168a1.56,1.56,0,0,1,.149.853v.677Zm.413-2.077a1.832,1.832,0,0,0-1.3-.382h-.283a1.805,1.805,0,0,0-1.3.382,1.717,1.717,0,0,0-.382,1.285v.926a1.8,1.8,0,0,0,.382,1.285,1.84,1.84,0,0,0,1.3.382h.283a1.8,1.8,0,0,0,1.3-.382,1.7,1.7,0,0,0,.382-1.285v-.926a1.652,1.652,0,0,0-.382-1.285" transform="translate(-321.404 -194.273)" fill="#517b97"/>
    <path id="Path_160" data-name="Path 160" d="M448.232,220.657a.291.291,0,0,0,.283-.283v-2.115a1.423,1.423,0,0,1,.172-.8c.019-.019.019-.038.034-.057s.038-.019.038-.038a.765.765,0,0,1,.57-.187.5.5,0,0,1,.6.642.291.291,0,0,0,.283.283h.226a.279.279,0,0,0,.287-.283v-.034a1.713,1.713,0,0,0-.268-1,1.2,1.2,0,0,0-1-.36,1.293,1.293,0,0,0-.964.34.291.291,0,0,0-.283-.283h-.207a.294.294,0,0,0-.287.283v3.591a.3.3,0,0,0,.287.283Z" transform="translate(-328.757 -194.256)" fill="#517b97"/>
    <path id="Path_161" data-name="Path 161" d="M463.7,220.682a.3.3,0,0,0,.283-.283v-2.421a1.706,1.706,0,0,0-.321-1.17,1.591,1.591,0,0,0-1.147-.34,1.381,1.381,0,0,0-1.189.532,1.239,1.239,0,0,0-1.208-.532,1.484,1.484,0,0,0-1.078.34.294.294,0,0,0-.283-.283h-.214a.294.294,0,0,0-.283.283V220.4a.3.3,0,0,0,.283.283h.229a.294.294,0,0,0,.283-.283v-2.115c0-.719.3-1.078.983-1.078.359,0,.509.073.566.134a.807.807,0,0,1,.134.547v2.494a.287.287,0,0,0,.283.283h.2a.291.291,0,0,0,.287-.283v-2.119a1.3,1.3,0,0,1,.207-.811.906.906,0,0,1,.715-.245c.3,0,.512.057.589.168a1.4,1.4,0,0,1,.13.765v2.23a.291.291,0,0,0,.287.283Z" transform="translate(-335.266 -194.281)" fill="#517b97"/>
    <path id="Path_162" data-name="Path 162" d="M478.9,219.573a.218.218,0,0,1-.1.207l-.019.019h-.038a2.436,2.436,0,0,1-1.625.019.642.642,0,0,1-.168-.532.623.623,0,0,1,.149-.47,1.472,1.472,0,0,1,.7-.115c.493-.019,1.078.057,1.078.417v.436Zm.738-2.383a.807.807,0,0,0-.3-.474,2.775,2.775,0,0,0-1.5-.245,2.417,2.417,0,0,0-1.147.207.864.864,0,0,0-.382.719.275.275,0,0,0,.264.3h.275a.294.294,0,0,0,.283-.226.275.275,0,0,1,.153-.226,1.8,1.8,0,0,1,.642-.1,1.707,1.707,0,0,1,.849.115c.134.073.153.34.153.547v.436a2.069,2.069,0,0,0-1.147-.245,6.348,6.348,0,0,0-.853.054.883.883,0,0,0-.662.493,2.325,2.325,0,0,0-.13.811,1.3,1.3,0,0,0,.382,1.1,2.149,2.149,0,0,0,1.266.264,1.694,1.694,0,0,0,1.147-.3v.019a.287.287,0,0,0,.283.245h.187a.291.291,0,0,0,.287-.283v-2.585c-.023-.207-.038-.417-.076-.623" transform="translate(-346.307 -194.285)" fill="#517b97"/>
    <path id="Path_163" data-name="Path 163" d="M490.8,219.11a1.53,1.53,0,0,0,.34-1.078.279.279,0,0,0-.077-.207.3.3,0,0,0-.21-.1h-.245a.279.279,0,0,0-.283.283.815.815,0,0,1-.115.512.673.673,0,0,1-.49.13.765.765,0,0,1-.493-.13.857.857,0,0,1-.13-.57V215.9h1.644a.294.294,0,0,0,.283-.283v-.153a.3.3,0,0,0-.283-.283H489.1v-.585a.291.291,0,0,0-.283-.283h-.229a.291.291,0,0,0-.283.283v.6h-.207a.287.287,0,0,0-.283.283v.149a.291.291,0,0,0,.283.287h.207V217.9a1.874,1.874,0,0,0,.283,1.17,1.289,1.289,0,0,0,1.021.359,1.824,1.824,0,0,0,1.193-.321" transform="translate(-353.514 -192.953)" fill="#517b97"/>
    <path id="Path_164" data-name="Path 164" d="M500.282,222a3.006,3.006,0,0,0,.474-.945l1.4-4.046a.272.272,0,0,0-.168-.359.172.172,0,0,0-.1-.019h-.207a.291.291,0,0,0-.268.187l-1.017,2.968-1.021-2.968a.287.287,0,0,0-.264-.187h-.229a.291.291,0,0,0-.283.283.172.172,0,0,0,.019.1l1.247,3.591a.383.383,0,0,0,.172.168l-.1.287a1.147,1.147,0,0,1-.245.432.474.474,0,0,1-.36.1.291.291,0,0,0-.283.283v.191a.279.279,0,0,0,.264.279h.149a1.189,1.189,0,0,0,.815-.337" transform="translate(-360.177 -194.385)" fill="#517b97"/>
    <path id="Path_165" data-name="Path 165" d="M513.014,218.156a.294.294,0,0,0,.287-.283.279.279,0,0,0-.057-.168l-1.5-1.836,1.189-1.4a.275.275,0,0,0-.034-.382.34.34,0,0,0-.191-.076H512.5a.275.275,0,0,0-.21.1l-1.208,1.434h0v-2.891a.291.291,0,0,0-.283-.283h-.26a.291.291,0,0,0-.283.283v5.217a.287.287,0,0,0,.283.283h.226a.287.287,0,0,0,.283-.283v-1.587h0l1.419,1.755a.3.3,0,0,0,.207.1Z" transform="translate(-367.379 -191.755)" fill="#517b97"/>
    <rect id="Rectangle_197" data-name="Rectangle 197" width="0.795" height="4.157" rx="0.398" transform="translate(146.958 22.244)" fill="#517b97"/>
    <path id="Path_166" data-name="Path 166" d="M521.432,213.248a.294.294,0,0,0,.283-.283v-.3a.291.291,0,0,0-.283-.283H521.2a.291.291,0,0,0-.283.283v.3a.294.294,0,0,0,.283.283Z" transform="translate(-373.962 -191.873)" fill="#517b97"/>
  </g>
</svg>
