<svg xmlns="http://www.w3.org/2000/svg" viewBox="0 0 214.04 141.92"><defs><style>.cls-1{fill:#fff}</style></defs><g id="Group_4369" data-name="Group 4369"><g id="Group_4368" data-name="Group 4368"><path id="Path_3040" data-name="Path 3040" class="cls-1" d="M164.19.17a165.9 165.9 0 0 0-24 3.34C138 4 135.93 4.47 134 5c-5.41 1.39-10.8 3.06-16 5l-.73.25-18.62 6.51a2.37 2.37 0 0 1-.65.09h-.13a2.2 2.2 0 0 1-.36 0l-.26-.09a2.43 2.43 0 0 1-1.69-2.28v-.15a3.28 3.28 0 0 1 .1-.69l.28-.81c.2-.56.39-1.14.58-1.72l.21-.61c.12-.37.24-.74.35-1.1 0-.14.09-.27.14-.42a3.4 3.4 0 0 0 .12-2.62 2.94 2.94 0 0 0-2.77-1.76 1.72 1.72 0 0 0-.32 0 33.32 33.32 0 0 0-6.66 1.67L85.52 7A160.85 160.85 0 0 0 54 20.24l-.7.33s2.79.32-1.45 20.82-.21 14.85 14.69 5.45c9.84-5.44-2.43-5.13 8.34-8.37.72-.22 1.44-.46 2.15-.69a31.18 31.18 0 0 1 6.24-1.57h.14a1.18 1.18 0 0 1 1.08.64c.16.34 0 .7-.17 1.31l-.15.47c-.12.38-.25.77-.37 1.14l-.18.55c-.19.56-.38 1.13-.57 1.68l-.3.87a5.08 5.08 0 0 0-.18 1.23.44.44 0 0 0 0 .16v.11a4.6 4.6 0 0 0 .06.52c.27 1.59 7.34-4.73 8.88-4.25a1.91 1.91 0 0 0 .34.1 4.52 4.52 0 0 0 2.15-.1l4.37 1.56.77-.27Q106.9 39.08 115 37c1.94-.5 4-1 6.14-1.45 7.82-1.68-3.24-1.15 4.74-1.67-17.19 15.24 33.68 10.76 36.33-11.13S167.55 0 167.55 0c-.92 0-2.28.1-3.36.17Z"/><path id="Path_3035" data-name="Path 3035" class="cls-1" d="M70.12 115.2V91.6h4.6a13.1 13.1 0 0 1 5.35 1 8.77 8.77 0 0 1 3.46 2.75 10.11 10.11 0 0 1 1.75 3.88 19.38 19.38 0 0 1 .5 4.36 16.3 16.3 0 0 1-.41 3.48 10.26 10.26 0 0 1-1.69 3.75 9.72 9.72 0 0 1-3.82 3.14 15.12 15.12 0 0 1-6.6 1.26Zm21-23.09c-3.08-2.38-7.15-3.59-12.09-3.59H57.37v1.24a17.61 17.61 0 0 1 1.89.52A2.76 2.76 0 0 1 61 91.86a7.4 7.4 0 0 1 .37 2.38v42.06a5 5 0 0 1-.51 2.41 3.21 3.21 0 0 1-1.63 1.43 7.28 7.28 0 0 1-1.9.43v1.35h17.38v-1.29a12 12 0 0 1-2.37-.49 2.92 2.92 0 0 1-1.78-1.52 5.6 5.6 0 0 1-.44-2.32v-17.83h6a25.91 25.91 0 0 0 7.27-1 19.76 19.76 0 0 0 6.28-3.08 15 15 0 0 0 4.53-5.33 16.15 16.15 0 0 0 1.63-7.39 11.52 11.52 0 0 0-4.66-9.56Z"/><path id="Path_3036" data-name="Path 3036" class="cls-1" d="M113.66 114.48V91.6h5.69c3.37 0 6 1 7.87 2.84a10.55 10.55 0 0 1 2.78 7.68 11.63 11.63 0 0 1-12.12 12.36Zm30.7 24.08a17.86 17.86 0 0 1-3-3.33c-2.51-3.38-6.08-8.43-7.83-10.81-1.62-2.22-3.67-5-6.09-8.19l-.47-.61.74-.23a31.58 31.58 0 0 0 4.49-1.79 16.89 16.89 0 0 0 4.06-2.8 11.18 11.18 0 0 0 2.78-4.1 14.79 14.79 0 0 0 .95-5.46 11.57 11.57 0 0 0-1.39-5.85 11.44 11.44 0 0 0-3.73-3.94 17.18 17.18 0 0 0-5.38-2.23 27.8 27.8 0 0 0-6.36-.7h-22.42v1.22a14.94 14.94 0 0 1 2.09.55 2.71 2.71 0 0 1 1.76 1.54 6.4 6.4 0 0 1 .38 2.33v42.61a5 5 0 0 1-.51 2.41 3.21 3.21 0 0 1-1.63 1.43 7.88 7.88 0 0 1-2.09.45v.86h16.71V141a8.53 8.53 0 0 1-1.57-.37 2.86 2.86 0 0 1-1.77-1.53 6.06 6.06 0 0 1-.42-2.31v-19.07h4.77l.16.2c2.93 3.78 5.69 7.49 8.2 11 4 5.72 6.8 10.07 8.63 12.94h12.63v-1.44c-.12-.06-.92-.1-1-.16a17.1 17.1 0 0 1-2.65-1.75Z"/><path id="Path_3037" data-name="Path 3037" class="cls-1" d="M214 140.45a8.35 8.35 0 0 1-2.1-.38 3.81 3.81 0 0 1-1.72-1.58 4.83 4.83 0 0 1-.45-2.22v-42a5.65 5.65 0 0 1 .45-2.3 2.77 2.77 0 0 1 1.72-1.51 4.34 4.34 0 0 1 1.25-.4l.57-.1v-1.44h-15.04a18.87 18.87 0 0 1-.55 2.69 34.58 34.58 0 0 1-1.22 3.86l-12.7 32.61-15-39.16h-15.7v1.3l.2.05a7.63 7.63 0 0 1 2.86 1.5 6.27 6.27 0 0 1 1.61 2.45 11.1 11.1 0 0 1 .57 3.88v29.2a57.61 57.61 0 0 1-.49 8.71 5.25 5.25 0 0 1-4.69 4.95h-.06v1.35h14v-2a6.14 6.14 0 0 1-2-1.07 8.34 8.34 0 0 1-1.78-3.93 47.84 47.84 0 0 1-.59-8.45V96.31l.39-.07 16.74 44.81h2.59l17.67-44.17.4.08v39.31a4.51 4.51 0 0 1-.55 2.31 5 5 0 0 1-1.71 1.64 4.89 4.89 0 0 1-1.31.42v1.28H214Z"/><path id="Path_3038" data-name="Path 3038" class="cls-1" d="M49.42 140.59a8.69 8.69 0 0 1-2.43-.76 18.21 18.21 0 0 1-2.78-1.83 19 19 0 0 1-3.21-3.24c-2.81-3.54-6.64-8.5-9.14-11.62s-5.47-6.6-9.13-10.74l-.34-.39.38-.36c2.62-2.48 5.29-5.25 8-8.23s5.69-7.36 8.23-10.28a8.06 8.06 0 0 1 2.31-1.88 13.79 13.79 0 0 1 2.73-1q.82-.15 1.35-.27a9.48 9.48 0 0 1 1-.15l.87-.07h.49l-.24-1.26H29.69l.24 1.78.41.09a7.46 7.46 0 0 1 1.6.58 1.06 1.06 0 0 1 .7.92 6.83 6.83 0 0 1-1.37 3.63 60.56 60.56 0 0 1-4.59 6.66c-1.77 2-3.77 4.13-5.94 6.18s-4.32 4-6.51 5.84l-.19.16V94a5.83 5.83 0 0 1 .46-2.3 2.77 2.77 0 0 1 1.72-1.51c.2-.07.45-.14.77-.22v-1.45H0V90l.59.09a7 7 0 0 1 2.11.55 3.36 3.36 0 0 1 1.71 1.55 5.27 5.27 0 0 1 .43 2.22v41.83a4.87 4.87 0 0 1-.5 2.31A3.23 3.23 0 0 1 2.7 140c-.24.1-.33.17-2.59.35H0v1.58h21.18v-1.26a15.81 15.81 0 0 1-2.73-.42 13.6 13.6 0 0 1-2.24-.64 3.44 3.44 0 0 1-1.7-1.58 5 5 0 0 1-.51-2.23v-20h.28l.16.18c3.79 4.07 7.46 8.32 10.92 12.64s6.64 8.71 9.64 13.3h15.33v-1.18Z"/><path id="Path_3039" data-name="Path 3039" d="M51.86 40.82Z" style="fill:#354a9f"/><path id="Path_3041" data-name="Path 3041" d="M138.79 25.18q-2.64.48-5.27 1l-1.51.32a167.14 167.14 0 0 0-21.68 6.36L110 33l-18.62 6.57a3.08 3.08 0 0 1-.91.13h-.06a5.27 5.27 0 0 1-.56 0l-.25-.08h-.11a3.29 3.29 0 0 1-2.3-2.66s0 0 0-.06a2.06 2.06 0 0 1 0-.26v-.3a4.06 4.06 0 0 1 .12-.91s0-.17 0-.17l.1-.27s.65-1.89 1.16-3.44c.22-.68.41-1.3.52-1.66v-.2a1.21 1.21 0 0 0 0-.19v-.06a1.74 1.74 0 0 0-.16-.68 2 2 0 0 0-1.84-1.23h-.26l-.81.11H86a27.93 27.93 0 0 0-3.82 1c-.9.27-1.86.58-2.85.92a162 162 0 0 0-19.15 7.61l-7.73 3.44-.56.25a154.22 154.22 0 0 1-4.33 20.82 166.18 166.18 0 0 1 24.61-10.3c.88-.32 1.73-.6 2.54-.84a28.32 28.32 0 0 1 3.82-1l.91-.13h.26a2 2 0 0 1 2 1.84 2.62 2.62 0 0 1 0 .28c-.18.81-1.72 5.32-1.72 5.32l-.14.38a4.06 4.06 0 0 0-.13 1V58.86a3.4 3.4 0 0 0 2.2 2.64 3.77 3.77 0 0 0 .6.16 3.15 3.15 0 0 0 .44 0H83a3.08 3.08 0 0 0 .91-.13l18.61-6.57.34-.11a164.58 164.58 0 0 1 56-10.24h1.48a159.25 159.25 0 0 1 1.44-19.27c.12-.84.25-1.67.37-2.5a166 166 0 0 0-23 2.36Z" style="fill:#ed1b23"/></g></g></svg>
