<svg xmlns="http://www.w3.org/2000/svg" viewBox="0 0 561.75 561.75"><defs><style>.cls-2{fill:#fff}</style></defs><circle cx="280.88" cy="280.88" r="278.74" style="fill:none;stroke:#fff;stroke-width:4.27px"/><path class="cls-2" d="m72.32 258.28 3.14-9.28 9.33 4.43-3.64 10.8 11.57 3.9 3.15-9.33 10.13 4.82 4.16-12.34-10.16-4.87 2.57-7.64 10.13 4.87 4.16-12.34-10.13-4.87 3.64-10.8-11.57-3.89-3.15 9.33-9.32-4.43 3.67-10.8-11.56-3.9-3.15 9.33-10.13-4.87L61 218.74l10.12 4.87-2.57 7.64-10.13-4.87-4.15 12.34 10.12 4.87-3.64 10.8ZM82.2 229l9.33 4.43L89 241l-9.33-4.43ZM137.08 194.15l-13-10.2 8.68-11.06q6.18-7.87 6-15.28T131.9 145q-6.59-5.17-13.86-3.66t-13.45 9.4l-12.1 15.41 41.17 32.31Zm-37.41-29.36 8.59-10.94q4.8-6.1 10-7.25t10.22 2.79q4.88 3.83 5 9.17T128.84 170l-8.58 11ZM168.57 140.62a25.5 25.5 0 0 0 13.44 2.8 30.29 30.29 0 0 0 23.8-15 25.41 25.41 0 0 0 3.23-13.3 27.74 27.74 0 0 0-14.55-23.09 25.44 25.44 0 0 0-13.4-2.82 30.27 30.27 0 0 0-23.76 15 25.22 25.22 0 0 0-3.26 13.32 27.81 27.81 0 0 0 14.5 23ZM162 106.36a23.84 23.84 0 0 1 19-12 20.34 20.34 0 0 1 10.79 2.39 23.14 23.14 0 0 1 11.84 18.79 20.32 20.32 0 0 1-2.5 10.76 23.91 23.91 0 0 1-19 12 20.48 20.48 0 0 1-10.84-2.3 22.83 22.83 0 0 1-11.84-18.79 20.4 20.4 0 0 1 2.55-10.85Z" transform="translate(-16.76 -9.89)"/><path class="cls-2" d="m247.34 94.58 2.57-.48 13.86-38.34 7.57 41.18 5.22-.96-9.45-51.48-4.49.83-15.13 42.23-29.36-34.06-4.48.82 9.45 51.47 5.22-.96-7.52-40.95 26.54 30.7z"/><path class="cls-2" d="m359.12 114.57 5.73 1.05-14.06-55.8-5.37-1-33 47.15 5.66 1 8.7-12.61 28.68 5.27Zm-29.53-24.21L347 65l7.3 29.9ZM402 134.45a32.08 32.08 0 0 0 10 3.61 25.48 25.48 0 0 0 10-.1l9.69-17.45-4.64-2.58-8.56 15.43a22.78 22.78 0 0 1-13.92-3.11 23.12 23.12 0 0 1-8.63-8 21 21 0 0 1-3.21-10.68 22.51 22.51 0 0 1 10.77-19.42 20.59 20.59 0 0 1 10.8-2.9 23.47 23.47 0 0 1 11.4 3.12q8.35 4.65 10.81 13l4.71-1.4a21.82 21.82 0 0 0-4.64-9 30.85 30.85 0 0 0-8.69-7 29 29 0 0 0-14.09-3.89 25.34 25.34 0 0 0-13.25 3.54 27.76 27.76 0 0 0-13.25 23.86 25.33 25.33 0 0 0 4 13.12 29 29 0 0 0 10.7 9.85ZM437.45 158.22l14.59-4.7 19.53 21.64-6.17 14 3.91 4.33 22.82-52.82-3.65-4L433.6 154ZM486 142.5l-12.46 28.16L456.72 152Z" transform="translate(-16.76 -9.89)"/><path class="cls-2" d="m464.52 204.75 38.79-15.14-25.12 31.87.96 2.44 40.28 6.35-39 15.22 1.93 4.95 48.75-19.03-1.66-4.25-44.33-6.86L513 185.02l-1.66-4.25-48.75 19.04 1.93 4.94z"/><path class="cls-2" d="m134.38 385.43-6.78-18.18-30.13 10.87q-6.14 2.22-9.73 1.06a8 8 0 0 1-5.11-5.18 7.79 7.79 0 0 1 .47-7.24q2-3.17 8.12-5.38l30.14-10.87-6.89-18.51-30.69 11Q71.26 347.56 67 357.11t.39 22.18Q72 391.92 81.6 396.47t22.08 0Z" transform="translate(-16.76 -9.89)"/><path class="cls-2" d="m154.16 418.31-29.09.57 15.7-14.54-13.5-14.1L84 430.33l13.5 14.1 10.69-9.91 6.73-.16-4.15 23.93 15.88 16.59 7.13-40.32 35.33-.63-14.95-15.62z"/><path class="cls-2" d="M235.17 469.57a35 35 0 0 0-12-8.15L197 450l-24.07 53.5 18.32 8 6.05-13.5 5 2.16 3.18 17.46 19.52 8.54-4-21.46a20.77 20.77 0 0 0 14.14-35.13Zm-14.81 14.74a6.49 6.49 0 0 1-3.94 3.82q-2.59.83-6.33-.79l-6.67-2.91 5.64-12.52 6.67 2.9q3.72 1.62 4.85 4.07a6.31 6.31 0 0 1-.22 5.43ZM283.25 475.87 256.51 534l20.37.25 4.12-10.14 22.58.27 3.85 10.24 20.72.25L303 476.1Zm3.46 34.13 6-14.63 5.58 14.77Z" transform="translate(-16.76 -9.89)"/><path class="cls-2" d="m324.73 460.56 18.15 55.65 19.08-6.03-18.15-55.65-19.08 6.03zM394.17 425.61l16.02 21.37-34.2-8.19-13.26 9.62 35.25 47.04 15.72-11.4-16.01-21.37 34.19 8.19 13.26-9.62-35.24-47.04-15.73 11.4zM421.57 398.24l48.54 33.7 11.56-16.1-48.54-33.7-11.56 16.1zM492.27 360.45l-7.42-2.39 7.84-23.49-13.71-4.42-7.85 23.49-6.61-2.14 8.93-26.74-14.36-4.63-15.08 45.15 56.46 18.22 15.43-46.19-14.36-4.63-9.27 27.77z"/><circle cx="280.72" cy="280.88" r="137.66" style="fill:#bcbec0;stroke:#dedddd;stroke-width:.35px"/><path style="fill:#ffc91f" d="M311.28 311.44v-61.13h-61.12v122.25h61.12v-61.12z"/><path class="cls-2" d="M311.28 250.31v-61.12h-61.55v122.25h61.55v-61.13z"/><path style="fill:#327ec1" d="M311.28 250.31h-61.12v61.13h122.25v-61.13h-61.13z"/><path style="fill:#ed1c24" d="M249.73 250.31h-61.12v61.13h61.12l61.12-61.13h-61.12z"/></svg>
